    <svg
      xmlns="http://www.w3.org/2000/svg"
      width="314.602"
      height="235.881"
      version="1.1"
    >
      <g transform="translate(878.512 -83.75)">
        <g transform="matrix(-.21913 .15738 .15738 .21913 -918.49 187.048)">
          <path
            fill="#f3cd5c"
            d="M-436.071 856.555l-9-.791-8-2.104c-11.221-2.95-13.093-3.522-21-6.412l-7-2.558-3.035-.02-3.035-.022-5.843-2.054-5.844-2.053-5.81-5.116-5.812-5.115-2.672-6.08c-1.47-3.345-4.002-7.78-5.627-9.856-2.608-3.33-6.379-10.716-8.193-16.045l-.62-1.819-2.254.661c-1.24.364-3.997 1.54-6.125 2.616-2.128 1.074-9.328 3.79-16 6.036-6.672 2.246-13.255 4.694-14.63 5.44-1.375.747-4.525 2.048-7 2.891-8.888 3.03-31.719 10.399-43 13.88l-11.5 3.55-25.5 5.435c-39.558 8.43-53.353 10.572-93 14.435l-10.5 1.023-15-.87c-17.764-1.032-19.455-1.277-34.87-5.052l-11.871-2.907h-3.418c-3.603 0-37.584-5.793-50.341-8.583l-7.5-1.64-5-2.831-5-2.832-4.691-4.807-4.691-4.807-1.931-7.018-1.932-7.019-4.074-6.481c-2.24-3.565-5.51-8.282-7.267-10.482-4.03-5.047-5.813-9.267-7.284-17.24l-1.166-6.314-24.982-.37-24.982-.37-9-1.158-9-1.159-9-2.523-9-2.523-9.5-4.797c-5.225-2.638-12.267-5.924-15.648-7.303l-6.148-2.505-15.852-10.25c-19.884-12.856-24.454-17.112-26.834-24.988-.415-1.375-1.408-3.245-2.206-4.156l-1.451-1.655-7.18-.662-7.181-.661-6.093-1.962-6.092-1.962-5.056-3.221-5.057-3.221-5.472-7.255-5.473-7.254-1.028-4.246c-.565-2.335-2.086-8.97-3.379-14.745l-2.35-10.5.198-9.347.198-9.346 1.525-2.328 1.525-2.327 1.874-.595 1.873-.595 3.899-5.73c7.01-10.305 17.3-22.52 29.012-34.442l11.505-11.71 11.195-7.93c18.305-12.965 27.482-17.624 53.696-27.264 7.425-2.73 15.75-5.91 18.5-7.066 2.75-1.155 9.05-3.557 14-5.337 17.087-6.144 73.493-32.355 94.5-43.913a1524.971 1524.971 0 0121-11.298c15.94-8.38 27.683-15.425 48-28.796 10.175-6.697 21.7-14.219 25.61-16.715 3.91-2.497 11.422-7.852 16.693-11.9 5.27-4.049 11.735-8.936 14.364-10.861 2.63-1.925 10.11-8 16.624-13.5 6.514-5.5 15.3-12.915 19.526-16.478 4.225-3.563 12.858-11.478 19.183-17.59 6.325-6.112 15.1-14.222 19.5-18.022 4.4-3.8 9.8-8.724 12-10.942 2.2-2.219 10.616-9.75 18.702-16.737l14.702-12.704 5.099-6.264c2.804-3.444 6.136-7.388 7.403-8.763 1.267-1.375 4.792-5.875 7.833-10 3.04-4.125 7.858-10.145 10.704-13.377 2.847-3.232 5.932-7.057 6.855-8.5.924-1.443 3.484-4.94 5.69-7.77 2.207-2.83 5.482-7.33 7.279-10 6.431-9.554 15.22-22.018 22.459-31.853 4.048-5.5 8.505-11.8 9.902-14 9.565-15.052 24.171-35.9 28.944-41.31 2.275-2.58 5.167-6.715 6.427-9.19 4.416-8.674 19.998-25.788 36.5-40.09 10.465-9.068 10.24-8.773 12.85-16.872l2.136-6.636 1.587-13.754 1.588-13.754-.33-23.215-.33-23.215-3.5-6.907-3.5-6.906-5.062-5.575c-2.783-3.067-6.608-7.764-8.5-10.438l-3.438-4.862.053-9.138.054-9.138 5.323-13.5c7.613-19.308 9.977-25.703 12.017-32.5l1.8-6 3.778-6.308 3.778-6.308 9.03-8.427 9.031-8.427 8.105-4.015 8.105-4.015 4.963-.004 4.963-.004 11.301 2.154 11.302 2.154 3.554 2.824 3.553 2.824 3.645.66c2.005.362 4.854 1.27 6.333 2.019l2.688 1.36 3.312 4.003c1.821 2.202 7.042 6.978 11.6 10.612l8.29 6.608 3.07 6.145c1.69 3.38 4.113 7.531 5.385 9.226 1.271 1.695 3.294 4.831 4.495 6.968 1.2 2.138 4.149 6.151 6.552 8.919 2.403 2.767 7.931 9.108 12.285 14.09l7.916 9.06 4.093 1.226 4.093 1.226 1.21 2.215 1.209 2.214.687 11.743.687 11.743 1.683 2.568 1.683 2.568 7.015 4.539 7.016 4.538 9.676 9.65 9.676 9.651 6.016 9 6.016 9 10.05 5c5.528 2.75 12.274 6.441 14.992 8.202 2.718 1.761 6.609 3.899 8.647 4.75l3.705 1.548h7.977l14.294 2.975c7.862 1.637 19.019 4.39 24.794 6.117l10.5 3.142 7.665 3.852c25.082 12.603 46.686 32.881 65.964 61.914l6.972 10.5 6.86 14c12.451 25.409 20.455 47.367 26.975 74l3.916 16 3.514 21.5 3.514 21.5 1.06 16.527 1.06 16.527v43.375l-1.034 10.286c-3.095 30.784-7.919 65.282-9.483 67.813-.187.303-1.757 7.508-3.487 16.011-7.284 35.786-15.505 60.165-35.258 104.556-10.312 23.175-28.28 57.942-34.97 67.665-2.348 3.412-5.168 7.889-6.268 9.948-3.35 6.273-17.623 26.844-25.527 36.792-1.967 2.475-4.932 6.525-6.59 9-14.079 21.022-29.356 42.123-49.234 68l-4.992 6.5-16.329 15.747c-8.98 8.66-19.765 19.164-23.966 23.342-4.2 4.178-8.925 8.407-10.5 9.398-1.574.99-4.413 3.312-6.309 5.157-3.648 3.552-13.628 10.987-20.931 15.595-2.408 1.519-6.233 4.402-8.5 6.407l-4.122 3.645-4.5 1.186c-2.475.652-5.625 1.932-7 2.843-4.872 3.227-6.592 4.17-14.982 8.214l-8.481 4.088-7.019 2.016c-17.014 4.89-31.146 7.32-57.018 9.808-11.896 1.143-12.573 1.142-26-.038z"
          ></path>
          <path
            fill="#d9b052"
            d="M-446.571 852.202c-23.713-7.156-47.338-12.017-65.63-27.538-9.132-37.894-29.631-30.78-60.37-13.673-64.621 23.471-133.75 38.947-202.527 38.768-37.543-7.68-76.076-10.95-113.164-22.071-16.058-11.128-14.37-33.376-30.208-45.67.528-23.005-13.867-22.447-33.55-21.026-9.794 3.044-61.218-7.717-35.647-7.236 20.17-7.73 5.975-.157-1.787-8.108-12.627 11.42-26.264 3.778-33.118-8.233-17.844.008-12.925-8.348-19-18.767-11.22-8.153-37.834 4.851-46.726-22.091-2.94-19.149-25.013 8.65-35.156-9.538-15.766-16.285-19.544-40.892-16.851-62.728 12.676 1.012 27.788-36.475 27.915-14.986-5.277 11.745 9.3 32.284 27.358 34.764 15.14-8.526 16.511-13.894 27.924-18.537 23.116-9.308 25.735-.357 6.166 8.116-6.559 15.82 18.539 4.972 26.37 1.744-18.636 13.593-.832 6.68 3.69 16.256 10.232 2.498 30.58 1.489 40.445-9 10.337.483 23.727-8.363 17.865-20.755 4.974-15.448 16.892-7.763 25.5-20.245-13.502-8.16-23.266-2.414-15.405-14.552-1.11-25.369 13.787 15.456 20.892-3.578 8.176-8.576 34.722-17.561 31.051-11.934 16.445-6.893 28.169-7.682 46.45-7.225 12.32-4.128 29.005-2.21 41.731-6.711 14.64-4.732 30.655-1.35 42.818-6.868 16.626 3.62 14.268-8.277 34.047-8.802 12.05 6.135 22.304 4.436 33.984-.169 3.389-7.01 8.358-2.734 19.886-6.161 8.608-9.498 25.33-4.39 36.18-14.412 6.176 1.943 13.722-10.653 21.346-4.645 9.984-9.543 41.467-10.328 22.644-27.592 10.821 14.74 17.873-19.516 23.18-.351 9.684-10.661 26.912-14.899 38.085-27.815 14.153-10.622 31.766-21.235 42.638-36.702 19.994-24 42.133-49.26 57.847-77.825 7.74-16.207 13.66-31.943 22.959-47.052 20.74-40.841 29.614-90.91 18.167-134.503 1.427-13.776-13.687-17.068-9-30.065-7.098-6.289-1.673 27.137-19.828 11.065-22.963 8.03-23.26 48.675-37.175 67.397-32.442 87.075-89.971 165.663-165.678 219.645-95.47 76.26-212.898 121.297-332.249 143.181-24.127-2.117-61.33 37.45-71.654 7.453-23.534 12.873 14.787-22.42-18.916-10.515-9.785-4.342-31.22 10.898-16.78-8.946.566-11.806 19.325-16.454 30.185-19.702 14.89-.55 22.953-13.784 39.322-11.468 19.345-4.003 38.222 4.891 56.023-6.567 14.44-.71 5.44-24.37 21.638-20.026 10.579-6.947 22.936 4.07 26.029 10.112 11.633-11.261 12.848-7.166 31.94-4.667 5.256-6.134 29.191-17.25 29.143-2 9.751.943 28.348-25.914 21.5-11.135 5.343-6.533 24.317-5.602 30.5-21.11 13.062-17.058 2.009 6.87 8.254 6.495 8.674-11.462 23.053-5.139 37.986-8.145 17.912 8.892 13.234-14.518 23.898-7.509 13.569-5.69 28.068-16.455 39.755-26.02 17.63-12.833 31.587-30.78 46.08-45.005 29.617-20.152 51.451-51.533 73.74-79.293 40.658-47.084 62.97-107.96 86.827-164.69 6.163-16.11.14-31.178-18.409-26.655-17.196-.724-9.13-25.753-22.079-22.265 1.891-11.151 24.343-19.886 27.227-34.826 2.956-27.59 10.118-61.097-2.74-88.057-30.945-18.824-19.232-53.58-5.114-79.285 6.45-28.072 33.712-58.76 64.928-50.356 24.02 3.586 42.807 19.409 58.56 37.052 7.316 30.437 46.56 42.636 48.7 70.658-1.568 23.603 28.367 28.993 37.869 47.912 12.439 22.15 39.506 34.767 65.103 37.03 6.862 7.246 31.817 21.855 12.53 5.637 13.96-5.984 7.714 12.258 21.596 10.778 16.515-2.12 14.78 9.653 26.35 8.983 28.366 8.437 48.239 42.809 63.48 68.12 63.97 121.452 52.875 269.868 2.858 393.886-31.11 79.438-83.908 147.041-134.854 214.402-50.45 51.667-110.505 106.356-187.059 106.949-12.517 2.205-26.154 2.347-38.485-.997zm-391.991-107.52c15.86-7.474 27.49-17 41.643-25.034 15.175-15.206 36.78-22.994 53.577-34.188-10.06-17.834 29.24-5.948 23.47-21.92-11.695-10.43-25.481 3.88-39.455 1.108-21.633 5.374-47.952 11.765-67.144 27.38-8.531 9.161-15.475 9.4-28.428 19.763 3.295 7.113.232 29.213-8.211 21.635 24.654-2.946 5.83 12.776 24.548 11.257zm19.2-43.214c-24.434 1.771 4.372-6.263 11.069-9.7 8.422-5.066 53.216-16.7 36.92.985-14.695 4.03-32.482 10.157-47.989 8.715zm112.429-41.32c8.073-8.305 25.368-1.565 30.397-14.566-1.53-.559-19.275 6.354-30.053 6.023-9.906 4.276-19.517 14.076-.344 8.543zm49.102-17c11.453-7.887 22.572 2.606 39.87-9.164-.972-9.068 26.837-3.481 35.39-18.399-20.548 8.992-12.182-12.717-23.93-11.937-13.619 9.616-21.225 17.006-38.498 24-6.785 2.106-41.221 21.52-12.832 15.5zm90.76-32.5c27.093-11.848 52.7-35.596 81.177-49.925 5.846-11.951 48.93-30.979 36.91-42.88-22.463 7.715-4.091-15.538 6.76-18.912 19.623-4.316-8.54 25.083 12.576 16.043 13.924-1.673 18.249-18.211 25.58-28.313 14.595-5.435 23.796-23.23 28-34.402 10.244-.547 18.933-50.521 23.607-18.823-11.29 8.337-10.42 20.364-8.706 34.098-11.57 7.592-2.12 19.43-15.092 27.651 6.39 11.125-13.01 17.788-1.31 22.414-10.177 1.883-10.838 17.64 2 13.272-19.22-17.35 16.834 1.512 13.002-14.357 7.875 4.275-5.845-30.422 15.03-19.773-3.822 21.387 9.943 2.493 8.68-6.327 9.373-13.03 22.033-23.307 26.35-37.46 1.504-5.866 6.933-16.828 10.938-25.418 7.053-9.101 25.8-20.732 12-30.486-5.406-11.38 2.323-14.342 10-28.283 6.059-11.663-11.086-21.4-6.754-34.928-1.809-19.326-9.66-9.013-7.665-19.266 18.276 3.4-4.558-21.629.061-28.24 11.53-9.512 5.523-31.054 5.221-46.369-2.912-7.384-5.396-34.263 6.135-27.816 4.095 4.723 18.95-27.96 28.93-15.5 3.914-18.853 11.237-14.319 5.776-25.942-12.87-11.926-21.665-3.463-32.037-16.068-13.775-19.205 2.333-8.849 11.563 1.207 5.4-12.79-20.59-18.537-19.246-19.859-6.396 2.704-7.967 11.824-15.985 15.753-8.667 6.86-21.309 42.87-36.83 18.1-11-18.776-14.794 10.886-16.626 25.74-9.368 85.1-22.941 172.515-70.545 245.773-19.308 30.035-39.26 60.686-68 83.308-8.76 12.88 23.02 6.757 3.988 17.172-22.018 5.263-37.138 23.702-59.229 29.737-8.806 7.943-62.423 29.577-32.525 35.42 7.894-2.295 11.55 3.853 16.266 3.659zm396.302-475.342c-4.909-5.112 5.763-21.71 15.278-5.421 17.303-2.981 6.717-20.691-6.08-23.966-1.884-7.268-3.056-28.731-16.368-22.652-7.84 7.148-11.534-11.051-23.593-4.222-9.675 3.413-24.944 27.04-4.383 34.23 10.024-4.873 25.556 1.56 18.345 14.128 3.784 7.082 9.827 9.669 16.8 7.903z"
          ></path>
          <path
            fill="#d4a326"
            d="M-419.013 851.116c-14.574-7.106-26.028-1.35-41.82-5.578-21.034-6.132-34.438-9.11-47.731-21.352-14.298-31.837-21.859-43.76-56.762-19.538-17.507 9.004-38.589 9.66-56.474 20.062-4.911-12.486 34.373-13.517 44.498-20.798 10.061-13.918 30.698-6.11 40.67-19.427 12.67-3.987 23.705-13.55 38.443-11.497 9.708-13.498 14.327-5.079 25.136-19.998 12.688-6.315 24.032-7.94 31.188-21.823 7.024-11.246 14.9-27.808 9.294-6.513-3.475 14.05 17.736-6.32 25.603-8.075 24.58-22.097 55.872-47.6 75.657-69.06 13.59-15.918 26.448-28.895 40.493-45.81 59.54-77.062 97.378-171.319 106.974-268.18 4.84-73.612-11.343-158.147-77.718-200.881-25.045-7.081-38.618-64.99-54.15-53.047-4.765 7.985-6.584 33.714-7.373 17.7-8.524 9.532-7.582 37.874 8.61 31.525-1.593-7.423 14.112 12.148 4.598 17.204-.143 14.623-12.51 46.282-29.545 26.618-18.274-27.33-18.325 37.142-22.388 54.06-7.917 76.062-24.996 152.701-68.56 216.94C-499.62 554-619.153 622.1-742.833 654.378c-38.34 13.89-103.311 30.094-117.335 65.233 2.98 13.15-25.373-1.134-32.043 17.95-6.45 19.268-27.411 4.243-44.06 7.665-25.891 2.065-48.4-14.446-73.109-13.68-14.389 2.505-26.884-2.361-31.984-13.363-4.959-18.316-34.786 10.59-39.206-14.589-4.285-15.059-17.93-18.782-32.5-11.99-20.56-7.063-21.586-30.684-26.504-48.167-.905-16.417 10.5-15.61 3.39-20.446 20.27-11.027 18.392 3.295 33.387 18.424 14.356 12.698 24.947-6.365 38.727 2.783 14.139 5.04 24.874 15.91 37.72 16.371 19.044-3.327 30.877-7.213 49.372-13.075 62.693-20.62 126.69-36.8 190.74-52.834 44.401-19.87 93.523-27.806 134.394-56.193 18.537-15.836 49.782-22.134 62.274-40.706 18.459-11.182 35.716-18.811 48.047-36.113 23.357-9.679 39.382-34.044 57.246-51.561 23.812-28.808 46.343-60.725 58.31-95.03 25.35-39.1 38.96-94.079 29.424-140.327-3.765-12.815-1.978-24.29-13.033-31.96 1.097-25.109.044 4.948-8.18 6.853-12.675-15.636-22.745 4.456-28.27 19.201-29.009 75.838-63.746 151.424-122.913 208.79-59.022 62.437-133.57 109.538-212.404 143.034-12.17-3.485 37.935-24.769 47.194-33.229 26.19-22.646 62.788-41.825 86.61-68.452 18.478-25.9 47.252-40.001 67.469-66.856 12.277-22.625 33.05-37.311 45.501-59.666 28.919-46.91 54.506-97.462 69.844-150.297 4.032-23.506-24.687-8.099-32.988-26.258-3.315-15.271 8.747-41.22 19.093-26.697 19.851 3.212 5.296-.422 6.971-17.485-3.711-9.919 4.045-23.153 4.079-34.06-3.11-20.326-6.742-35.021-4-33 1.962-6.038.802-23.745-7-18.118-7.081-16.6-32.01-29.68-20.087-52.04 6.263-21.21 16.409-32.674 22.507-50.947 6.251-22.583 33.398-37.023 55.896-28.988 25.209 4.7 47.824 23.711 60.375 45.547 7.853 23.693 38.08 34.01 42.52 54.744-2.671 19.608 9.992 28.871 3.854 44.664-16.764 10.868 13.414 33.098 20.685 45.228 7.008 5.075 26.97 46.525 33.25 21.91 4.56 3.26 23.83-12.758 26.561 2.014-2.654 9.303-12.471 19.365-9.602 29.008-4.447 19.788 14.32 36.035 25.547 50.799 13.496 9.176 13.41 24.627 30.597 37.064 9.653 12.132 16.68 28.745 24.307 42.115 8.54 19.034 11.592 40.21 16.488 61.181 4.597 13.32 5.816 28.078 7.887 41.04-.36 12.595-4.44 23.538 6.145 33.02-2.833 10.612-4.053 23.648-8.245 36.198-12.87 17.755-4.22 39.057-8.391 56.8-8.018 7.614-16.25 15.288-7.007 27.902 7.581 13.92-24.742 27.648-15.957 39.756 22.205-16.935 8.65 38.203-.038 13.603-11.65-14.905-10.671 18.415-20.475 23.24-7.604 8.435-9.933 23.311-13.45 31.16-.727-4.076-23.797 23.732-6.217 27.35 8.697-2.459 4.345-22.275 19.955-10.092-9.887-13.335 34.599-15.976 11.768.828-5.115 11.427-17.46 21.155-21.079 32.511 7.23 21.636-29.652-.31-12.012-7.9 3.023-15.271-13.99-15.473-11.47 2.833-5.616 11.31-11.227 15.793-24.311 17.315-3.195 12.939-7.268 21.01-19.912 31.301-5.37-12.3-14.233-12.492-8.304 1.952 5.984 14.41 28.242-5.462 35.796.484 6.058 12.717 35.262 10.722 15.796 3.269-7.143-7.205-.154-21.984-15.376-9.409 6.3 10.485-13.009-6.867-16-.26 9.47-2.507 13.06-13.4 24.956-12.309 16.48-.487 10.039 22.472 21.97 25.553 8.663-21.267 6.578 19.02-9.03 13.867-6.77 9.321-.66-18.864-10.896 1.824 7.822 9.553-4.353 20.436-16.069 32.983-10.606 4.421-16.682 13.118-27.813 18-3.509-6.196-1.823-10.955-17.283-18.096 11.251-19.154-29.088-15.914 2.255-19.487.273-8.41 14.534-30.1.607-31.072-9.685 2.692-13.543 13.536-28.448 15.623 3.993 6.602-7.323 13.588 2.402 14.95 15.84 2.961-8.344 24.798 3.348 28.965-9.548 9.644-6.657-6.403-15.77-5.986-14.317 19.377 2.15 8.047-3.23 25.603-1.127 11.286 25.372-14.097 21.86 9.892-14.507 13.066-15.816 19.932 2.739 17.77-3.616 8.969-27.728 2.922-17.6 9.838-6.623 15.28-12.468 11.116 4.744 10.797-16.455 16.75-41.092 19.82-63.082 26.238-13.118.546-26.371 1.867-38.103 4.433zm73.624-65.968c12.002-.335 14.546-38.345-5.351-28.266-19.17 6.906 2.89 21.897 1.13 30.766 1.346-.927 5.018 1.76 4.22-2.5zm25.524-702.25c7.31-9.343 10.912-19.272-2.318-30.234-.293 10.948-2.25 21.113.83 31.91l1.488-1.676zm-459.763 762.995c-7.918-4.18-13.411-8.31-27.091-7.611-18.68 1.35-41.136.943-59.048-8.4 7.557-15.859.447-15.992-10.987-5.734-32.787 6.735 12.387-10.63-7.747-18.314-2.307-6.898-11.734-19.015-21.482-15.06-20.567-2.292 18.297-31.99 5.613-26.655-20.675.062-8.75 39.945-19.902 2.334 3.205-18.57 26.782-3.28 36.2-14.776-21.127-10.688 18.521-20.826 6.692-4.58 10.91-.852 13.937-2.84 26.394-.835 27.638 4.714 51.022-24.776 73.633-37.495 16.934-6.422 32.847-19.453 52.94-22.12 13.313-14.025 29.7-14.652 48.342-22.171 16.541-2.983 32.014-14.023 50.559-19.975 18.25-1.724 32.94-18.025 52.379-21.013 15.295 3.663 6.978-7.015 20.34-14.946 19.62-13.75 32.186-2.745 8.021 8.044-13.501 8.457-10.913 7.805-15.798 17.195-7.1-12.552-11.397 19.936-23.135 5.867-7.282 17.373-2.603 2.579-16.557 8-9.324 17.334-25.101 2.155-25.31 21.415-18.812-.622-5.554 5.24-14.581 8.674-8.196-12.939-11.487 16.987-26.149 7.91-7.26 5.58-31.035-10.547-26.413 6.8 17.354.635 12.954-3.61 7.012 8.782-8.285-5.628-26.016 8.765-36.38 4.43 14.438 11.31-22.21 8.194-20.494 22.403 5.592 5.086 14.354 8.622 31.006 14.177 8.893-16.111 8.214 4.002 20.896-5.89-11.346-21.923 8.098-14.125 16.104-5.456 18.385-4.995 9.56 14.005 4 17.657 13.539.404 15.861-9.724 20-21.902-12.64-2.197-9.453-29.858 8.69-24 17.279 5.226 29.884-19.563 54.461-22.287 12.174-5.607 20.76-4.681 32.335-11.721 12.082-13.398 24.29-.441 12.416 10.74 17.523 4.63.621 47.503 19.844 28.49 3.667-17.074 21.599-29.07 31.854-19.23 30.79-7.205 13.24 29.264-3.802 32.258-8.635 27.159 15.558 1.489 25.893 4.465 29.555-15.37 3.566 10.773-11.691 14.296-18.568 2.767-21.212 19.579-38.686 21.878-6.501 15.119-4.375 20.202-15.182 10.11-8.93-6.225-20.73 4.395-24.097 14.037-19.364 5.254-20.818 2.044-37.261 7.96-18.22 8.347-36.822 4.32-56.735 8.42-17.902 11.39-43.356 4.158-60.973 17.561-16.577-2.505-32.56 3.441-49.52 3.005-15.433-.508-19.405 17.702-3.276 21.375 40.455.918-3.491 6.216-13.327 1.888zm2.475-67.852c-.78-10.235 34.401-5.368 11.538-22.59.658 3.99-27.488 23.22-11.538 22.59zm19.59-21.143c14.86-2.079 3.84-17.24-4.508-15.973-6.762.267 1.023 19.595 4.507 15.973zm460.604 16.03c-23.039 1.375 6.372-25.298 8.61-9.254-2.328 2.807-2.276 10.493-8.61 9.254zM-440.15 708.52c5.547-14.022-4.25-32.228 10.08-13.006 10.136 3.743-5.452 17.34-10.08 13.006zm90.58-64.85c-3.731-6.697-1.46-21.127 11.936-30.913 10.95-21.568 5.866-19.94 24.184-26.899 15.785-4.298-.717-17.222 7.818-26.362-6.776-13.853 21.384 9.968 16.543-19.973 8.906.686 20.054-28.671 6.568-18.875-11.777-17.984 28.723-29.016 5.95-37.214 1.16-10.053 17.042-42.754 8.72-28.63 4.605-10.83 17.525-22.5 28.244-18.62 13.313-3.78 12.48-19.047 15.888-26.832 10.636 8.423 2.805 9.878 6.662 23.253-10.698 17.373-20.458 44.003-26.724 64.543-7.486 15.056-14.857 29.24-24.352 43.054-10.712 19.934-27.22 37.714-36.437 56.747-12.472 3.326-16.384 25.528-27.998 33.718-8.475 2.312-8.48 14.95-17.002 13.003zm1.706-52.649c4.273-9.973 10.451-22.793 19.527-28.873 2.562-18.476 14.04-13.855 8.973-29.36 10.293 3.972 17.96-27.871 17.707-4.64 21.194-13.094 10.081 11.75-.36 4.606-12.877 1.713 4.412 10.264-8.092 8.78-9.215 15.442-18.427 29.576-27.461 44.714-3.801 1.789-6.68 5.669-10.294 4.773zm-641.515-16.725c-.984-13.24 23.911-6.404 32.845-14.03 17.265-2.463 30.607-17.48 27.595 2.001-12.139 8.423-30.023.023-34.197 8.406-9.492-1.416-17.118 9.14-26.243 3.623zm76.162-14.81c-14.786.046-23.523-23.291 1.147-13.338.472 7.006 19.595 10.944-1.147 13.338zm793.313-155.505c-.555-6.66 3.75-40.31 11.224-18.43-8.372 9.227 8.903 23.074-11.224 18.43zm15.192-20.665c-9.555-8.384 15.258-32.576-5.894-33.793-6.538-18.326-.35-32.314 4.205-51.375 17.083-8.029-7.471 38.339 13.952 23 7.275 19.152-4.675 35.31-3.059 54.456-2.322 3.376-3.354 11.457-9.204 7.712z"
          ></path>
          <path
            fill="#a36d14"
            d="M-888.321 825.475c-3.63.197 19.834-16.956 3.82-19.64-2.23-6.932-11.784-18.978-21.482-15.06-27.584-1.86 10.293-25.148 8.654-26.784-25.63-6.172-9.697 43.11-23.107 3.686 2.87-20.483 31.661-3.74 41.956-14.564 6.806-5.57 18.98 16.673 10.235 27.188-.856 13.174 1.357 27.371-1.813 40.347-5.748.964-11.854 8.9-18.263 4.827zm388 .142c-10.71-.286-30.775-22.564-21.293-35.63 62.547-29.885 120.96-69.501 169.465-118.76 79.414-72.16 135.463-170.028 158.881-274.884 18.306-75.52 16.884-162.424-28.862-228.262-23.801-29.615-59.935-47.995-76.837-83.317-11.791-12.201-34.77-70.972-33.099-63.116 3.181 10.672 12.656 39.492-7.382 29-7.51-10.771-22.928-9.435-26.17-19.329-7.892-12.482-31.935 2.947-18.396-15.198-.407-15.47-29.086-17.356-30.264-5.423-4.954 19.934-22.982-29.061-41.293-17.113-1.547 10.644-20.628-14.534-30.645-19.012-25.508-16.424-12.144-47.432-.363-67.425 7.079-10.244 8.533-27.177 19.27-38.246 18.505-25.703 57.17-17.32 77.761-.3 28.582 17.727 37.91 51.449 63.122 73.125 14.852 1.962 9.303 24.89 7.747 35.544-17.186 22.837-1.705 41.843 12.918 58.711 19.036 16.806 29.28 34.396 35.323 50.667 12.76 22.223 34.784 43.769 45.23 66.424 11.5 21.8 38.558 39.787 37.848 59.575 11.925 12.42 8.719 30.493 14.813 47.797 3.744 30.825 15.372 62.491 5.363 93.456-.647 28.006-1.928 45.062-9.545 70.991-6.384 39.426-21.898 77.618-38.824 113.016.797 14.595-26.347 23.813-13.518 36.977-31.331 8.066-49.934 66.492-82.168 87.723-12.046 12.758-29.766 19.049-38.23 36.04-12.06 8.479-17.068 22.27-32.653 32.733-18.715 21.671-47.46 20.937-68.45 33.722-4.954 16.757-36.92 8.82-28.506 32.608-1.576 10.368-6.804 32.606-21.243 27.906zm47.399-848.72c10.855-18.981.76-16.325-8.75-19.35-8.695-9.805 3.745 33.127 8.75 19.35zm-437.65 749.692c-6.339-3.029 13.774-20.334 2-28.75-14.223-11.965 18.562-20.078 5.879-33.645-18.521 7.501-1.333-33.508-23.378-16.546-11.176-3.94 7.645-19.16 22.891-16.052 9.874-4.067 18.71-13.953 27.9-8.8 21.437-1.623 3.425 14.122-7.122 11.663-14.675 6.975.6 19.77-10.989 12.182-14.27 11.617 13.01 5.255 20.372 8.801 5.467 3.783 40.352-.154 26.25-4.508 10.33-3.326 29.5-.895 35.067-5.065 6.76-1.9 16.014-7.606 26.43-9.304 11.927-8.355 23.731-4.088 32.14-8.215 6.987 2.799 23.943-2.38 38.63-14.702 11.857 5.515 22.755-2.802 33.255-5.792 11.813-2.476 27.113-14.578 38.514-15.99 11.69-5.398 20.115-12.83 31.277-18.027 22.287-9.637 37.967-23.057 55.931-36.91 24.335-17.662 55.435-44.164 76.194-68.714-2.062-17.267 7.57.476 19.724-23.9 25.264-22.836-30.146 51.17-40.246 57.98-72.577 81.888-175.781 127.897-279.828 154.868-48.428 13.733-89.056 43.727-130.89 69.426zm-179.72-13.088c-12.613-3.044-11.76-17.92-18.28-25.928 2.535-24.55-1.672-19.938-10.27-2.49-14.424 17.758-34.224-6.398-36.73-21.753.274-13.808-11.69-30.793 4.266-36.816-20.406-6.901 31.274-8.557 28.748 18.233 16.707 17.853 32.734-17.258 54.27 7.429 20.687 1.709 8.147 26.134 11.85 35.77-7.046 9.96-18.01 31.482-33.855 25.555zm346.804-223.242c8.408-11.56 83.509-54.639 39.068-22.01-12.655 7.86-24.931 16.963-39.068 22.01zM-378.5 146.55c5.177-32.072 23.366 20.088 0 0zm-56.348-11.513c-8.519-21.04-32.588-11.955-11.494-39.165 4.572-25.29-1.847-52.484-2.066-76.722 14.124 33.38 23.651 71.689 19.074 108.152-1.035-4.837-2.885 12.211-5.514 7.735zm60.437-22.63c-7.422-15.24-14.666-25.652-19.204-41.26-4.095-14.654-32.297-65.973-5.098-28.837 12.775 22.308 19.643 47.783 27.259 70.147-1.025.317-2.26 2.447-2.957-.05z"
          ></path>
          <path
            fill="#603d27"
            d="M-499.007 823.398c-8.863-2.745-25.34-11.402-24.564-30.603 18.03-8.46 47.462-32.985 40.92 1.853 1.165 9.707-5.346 34.6-16.356 28.75zm-374.262-10.7c-5.892-7.029-13.479-6.482-12.806-18.36-14.633 5.332-21.842-20.98-4.181-8.847.626-9.699-12.446-10.757-16.68-9.057 5.703-7.26 23.152-22.197 33.41-16.478 7.058 10.895 2.491 19.502 1.955 31.562-11.674 8.12 3.62 21.5-1.698 21.18zm-198.36-100.946c-8.219-7.672-17.95-22.825-9.754-35.238-14.914-11.066 1.846-36.668-.983-27.007 12.522-.447 18.997-6.24 31.775 4.515 19.385-.216 11.514 22.508 8.552 33.582-6.32 21.127-9.616-3.819-12.786 19.494-3.385 6.178-10.81 6.08-16.805 4.654zm-36.192-23.778c4.933-9.016-19.003 8.088-21.806-13.477-7.682-10.188-4.858-23.872-9.884-35.686 9.268-13.108 4.097-11.9 5.597-17.163 19.135.469 22.25 26.942 38.048 33.082 11.05 18.726-16.575 6.94-9.472 17.904 18.1-7.386.506 21.28-2.483 15.34zm768.965-645.072c-15.253-5.916-14.434-33.955-32.976-27.036-11.327-6.426-12.216-33.614-33.078-24.592-20.12 2.34-35.387 3.957-7.661-11.778 1.417-11.978 8.569-28.446-.757-40.897-5.8-14.031-17.226-18.247-29.747-23.055-13.335-6.09-19.461-20.833-24.595-34.128-11.034-20.512 25.544-17.735 17.601-25.605 18.525-3.884 27.14 15.826 43.498 18.178 28.742 12.68-5.746-13.714 3.03-13.356 15.646 5.543 22.182 22.966 36.944 28.044 9.565 24.485 17.058 26.958 34.625 47.795 14.53 6.66 14.19 18.083 14.207 33.085-11.336 5.281-6.21 29.51-19.09 37.354-2.373 12.821 13.04 34.809 4.21 42.737-2.067-2.247-4.159-4.505-6.21-6.746z"
          ></path>
        </g>
      </g>
    </svg>