<svg width="100%" height="100%" viewBox="0 0 250 250" fill="none" xmlns="http://www.w3.org/2000/svg">
<path d="M151.046 190.001L152.204 188.998L153.095 187.913C154.346 186.391 154.547 186.126 155.348 184.942L156.058 183.894L156.473 183.589L156.887 183.285L157.488 182.421L158.088 181.557L158.383 180.274L158.677 178.991L158.446 177.886C158.319 177.279 158.23 176.415 158.249 175.967C158.279 175.249 158.07 173.855 157.795 172.939L157.701 172.626L158.076 172.494C158.282 172.421 158.776 172.309 159.174 172.246C159.572 172.183 160.828 171.843 161.966 171.49C163.103 171.137 164.248 170.821 164.51 170.788C164.773 170.754 165.333 170.621 165.756 170.491C167.275 170.026 171.136 168.776 173.028 168.136L174.956 167.483L178.993 165.7C185.256 162.934 187.361 161.86 193.186 158.455L194.729 157.553L196.703 155.943C199.041 154.036 199.249 153.834 200.995 151.782L202.339 150.201L202.809 149.862C203.303 149.504 207.4 145.329 208.878 143.677L209.746 142.706L210.154 141.818L210.562 140.931L210.733 139.801L210.905 138.672L210.479 137.511L210.053 136.351L209.975 135.052C209.932 134.337 209.917 133.361 209.942 132.883C209.998 131.786 209.828 131.027 209.245 129.78L208.784 128.793L212.178 126.26L215.573 123.728L216.695 122.674L217.817 121.62L218.805 120.378L219.792 119.136L220.625 117.53C221.083 116.647 221.726 115.494 222.055 114.968L222.653 114.011L223.821 111.022C225.287 107.273 225.495 106.231 225.047 104.908C224.969 104.677 224.921 104.32 224.941 104.115L224.978 103.742L225.899 102.938L226.82 102.133L227.463 101.257L228.107 100.381L228.484 99.4346L228.862 98.4878L228.899 96.9429L228.937 95.3981L228.66 94.71C228.508 94.3316 228.064 93.2648 227.673 92.3394L226.962 90.6567L226.015 89.3864L225.068 88.1161L224.63 87.9464L224.191 87.7766L223.875 87.8807L223.559 87.9847L222.46 87.5809C220.483 86.855 217.868 86.1913 215.086 85.7094L212.353 85.2361L210.035 85.2538C206.245 85.2826 204.527 85.551 199.978 86.8245C198.689 87.1852 197.233 87.5733 196.742 87.687C196.25 87.8006 195.149 88.0949 194.294 88.341C191.342 89.1903 181.016 91.1757 176.993 91.6672C175.888 91.8023 174.089 92.0394 172.998 92.194C169.984 92.6207 167.677 92.8149 163.571 92.9876C161.515 93.074 159.192 93.1807 158.409 93.2246C157.626 93.2684 156.068 93.2755 154.945 93.2403C153.823 93.2052 152.454 93.1727 151.904 93.1682C151.353 93.1638 149.728 93.0684 148.292 92.9563C146.856 92.8442 144.92 92.6936 143.989 92.6217C143.058 92.5497 141.093 92.3147 139.623 92.0994C138.153 91.8841 136.149 91.6365 135.171 91.5491C134.193 91.4617 132.967 91.3185 132.446 91.2309C131.926 91.1433 130.029 90.9398 128.23 90.7787L124.961 90.4858L123.644 90.1278C122.92 89.9309 122.074 89.7175 121.765 89.6537C121.456 89.5898 120.529 89.3188 119.705 89.0516C118.882 88.7843 117.628 88.432 116.918 88.2687C116.209 88.1054 115.409 87.8839 115.14 87.7765C114.872 87.6691 114.176 87.4408 113.594 87.2693C113.013 87.0977 112.12 86.802 111.611 86.6121C109.787 85.9323 107.353 85.0851 105.391 84.4468C104.294 84.0899 103.062 83.663 102.653 83.4983C99.8583 82.3709 95.8005 80.9446 94.6124 80.6718C94.0462 80.5418 93.2421 80.2583 92.8254 80.0419C91.3653 79.2835 87.5409 78.4693 83.867 78.1347C81.5373 77.9225 81.5971 77.9409 80.4419 77.0823L79.4953 76.3788L77.9236 74.6381L76.352 72.8975L74.1125 69.6607L71.873 66.4238L71.6739 65.1231L71.4749 63.8223L71.6213 62.55C71.7018 61.8502 71.7648 60.822 71.7613 60.2651L71.7551 59.2525L70.8484 57.9966L69.9417 56.7408L67.882 55.4063C64.9361 53.4977 63.982 52.85 63.0329 52.1145L62.1951 51.4653L61.0555 50.9699L59.9159 50.4745L57.8462 50.2085L55.7766 49.9426L54.2683 50.1935L52.7601 50.4445L52.0781 50.9369L51.3962 51.4293L50.0561 52.8492L48.7159 54.2691L48.5058 55.0119L48.2957 55.7546L47.8601 56.2076C47.6205 56.4568 47.3185 56.8653 47.1891 57.1154L46.9537 57.5702L46.8929 58.4516C46.8595 58.9365 46.6125 60.1141 46.3442 61.0685L45.8562 62.8039L46.0391 63.957C46.1397 64.5913 46.2156 65.4049 46.2078 65.7652C46.2 66.1255 46.2308 66.7592 46.2762 67.1734C46.3217 67.5877 46.3118 68.4344 46.2541 69.0551C46.1965 69.6758 46.0613 71.1 45.9538 72.2201L45.7582 74.2567L45.3168 74.8325L44.8753 75.4084L44.9272 75.8342L44.9791 76.26L46.0404 77.9489L47.1018 79.6379L47.1234 80.1594L47.1451 80.681L46.6282 82.0043L46.1114 83.3276L45.7324 85.6206L45.3534 87.9137L45.4129 89.7534L45.4724 91.5931L44.5842 93.2815C44.0957 94.2102 43.5325 95.3897 43.3326 95.9026C43.1326 96.4156 42.8086 97.0971 42.6125 97.4171L42.256 97.9989L41.7082 98.3951L41.1605 98.7913L39.4902 100.622C38.5716 101.628 37.3102 103.117 36.6872 103.929L35.5544 105.405L34.8808 106.698C32.6765 110.929 31.7053 115.874 31.9152 121.796L31.9911 123.937L32.4268 126.551C33.2175 131.295 34.2793 135.12 36.0052 139.444L37.042 142.041L38.6755 145.357L40.309 148.674L41.79 151.06L43.2709 153.446L45.4054 156.439L47.5399 159.433L48.6942 160.749C52.149 164.691 56.2067 168.973 56.6707 169.167C56.7262 169.19 57.6508 170.028 58.7254 171.03C63.2478 175.246 66.7762 177.794 73.8579 181.958C77.5549 184.132 83.4443 187.146 85.3201 187.823C85.9783 188.061 86.8063 188.399 87.16 188.574C88.2375 189.107 92.2221 190.528 94.2868 191.116C94.8005 191.262 95.6063 191.527 96.0775 191.704C100.08 193.206 104.255 194.601 109.532 196.198L110.857 196.599L114.649 197.15C116.735 197.454 119.25 197.832 120.238 197.991C121.226 198.151 122.291 198.265 122.605 198.245C122.919 198.226 123.537 198.264 123.979 198.331C124.83 198.458 126.932 198.493 128.388 198.404C128.869 198.374 129.678 198.392 130.186 198.444L131.111 198.537L131.846 198.254C132.25 198.098 132.809 197.962 133.087 197.951C134.074 197.913 134.403 197.872 135.953 197.597L137.52 197.318L138.683 196.899C141.5 195.884 143.681 194.816 147.478 192.589C149.225 191.565 149.318 191.498 151.045 190.001L151.046 190.001Z" fill="#F3CD5C"/>
<path d="M152.059 188.358C154.611 185.015 157.377 181.997 158.362 178.038C155.887 171.901 159.402 170.847 165.307 170.154C176.492 166.975 187.509 162.244 196.937 155.387C201.337 150.598 206.307 146.319 210.306 141.1C211.416 137.97 208.995 135.067 209.96 131.797C207.623 128.674 209.655 127.321 212.498 125.562C214.143 125.01 220.146 118.416 216.682 121.023C213.151 121.96 215.846 121.595 216.129 119.726C218.987 120.048 220.108 117.639 219.867 115.3C222.319 113.529 220.821 112.864 220.629 110.823C221.368 108.583 226.303 107.734 224.872 103.133C223.392 100.198 229.159 101.842 228.762 98.3241C229.324 94.5104 227.422 90.7389 224.903 87.9927C223.261 89.3916 217.496 85.7191 219.594 88.6973C221.475 89.7941 221.494 94.0769 219.258 96.2128C216.34 96.54 215.623 95.9354 213.599 96.4282C209.508 97.4397 210.029 98.9352 213.551 98.1608C216.008 99.6927 211.494 100.688 210.101 101.021C213.998 101.046 210.873 101.86 211.194 103.631C210.035 104.992 207.141 106.874 204.754 106.406C203.382 107.5 200.672 107.609 200.257 105.316C198.054 103.679 197.174 105.923 194.763 105.055C195.814 102.588 197.721 102.411 195.446 101.517C193.102 97.9052 195.074 105.019 192.225 103.098C190.258 102.727 185.728 104.123 186.786 104.535C183.849 105.218 182.161 106.273 179.696 108.152C177.598 108.806 175.495 110.728 173.304 111.371C170.828 112.172 168.961 114.23 166.748 114.677C164.821 116.828 163.974 114.952 161.206 116.844C160.154 118.887 158.579 119.672 156.522 120.196C155.366 119.565 155.105 120.649 153.184 121.321C151.067 120.865 149.274 123.231 146.797 122.926C146.14 123.808 143.864 122.819 143.408 124.405C141.098 124.08 136.697 127.099 137.583 122.846C137.547 125.956 133.208 121.928 134.365 125.1C131.986 124.591 129.203 125.717 126.397 125.045C123.408 124.984 119.944 125.269 116.929 124.215C111.821 122.888 106.295 121.601 101.325 119.22C98.6671 117.751 96.3052 116.168 93.5412 115.006C86.6732 111.43 80.5268 105.401 77.8085 98.2474C76.2566 96.4879 78.0083 94.5322 76.0855 93.2041C76.4415 91.631 78.9861 96.7832 79.8976 92.7615C83.8415 91.5888 87.8825 97.1691 91.6363 98.3707C104.661 107.166 120.297 112.298 136.007 112.228C156.624 113.27 177.184 107.821 195.729 98.986C198.834 96.2972 207.837 98.0625 206.303 92.897C210.802 92.3359 202.065 91.2716 207.866 89.5668C208.782 87.9956 213.226 87.9698 209.29 86.6654C208.05 85.0921 205.016 86.3141 203.205 86.9444C201.106 88.3477 198.696 87.322 196.676 89.2677C193.625 90.6368 191.908 93.7394 188.336 93.9262C186.283 95.2627 185.19 91.1031 183.393 93.3117C181.257 93.4037 180.644 96.1517 180.814 97.2927C178.108 96.8941 178.344 97.5801 175.968 99.8214C174.642 99.4968 170.261 100.34 171.769 102.44C170.522 103.539 165.325 101.679 167.72 103.039C166.343 102.668 163.829 104.681 161.454 103.155C157.981 102.098 161.854 104.303 160.96 104.871C158.64 104.151 157.288 106.452 154.941 107.521C153.356 110.527 151.695 106.831 150.92 108.858C148.496 109.421 145.446 109.375 142.899 109.216C139.215 109.196 135.532 108.105 132.141 107.582C126.091 107.742 120.003 105.58 114.21 103.963C103.993 101.503 94.9369 95.3176 86.0773 89.8579C83.6453 88.2467 82.9895 85.5687 85.9819 84.3505C88.2724 82.5424 84.7014 79.8893 86.823 79.0846C85.4657 77.7333 81.5226 78.758 79.6563 76.9825C76.5349 73.4684 72.2535 69.5552 71.3661 64.5571C73.7632 58.8854 68.734 55.252 64.2651 53.1067C60.6166 49.8729 53.8522 48.3456 50.3922 52.6062C47.4464 55.4869 46.4234 59.5371 45.9964 63.5368C47.9873 68.4642 43.7984 74.046 46.2624 78.1261C48.8006 81.228 45.22 84.9454 45.777 88.5003C46.2487 92.7929 43.7733 97.2229 40.4806 100.078C40.2512 101.759 38.2619 106.255 39.3145 102.1C36.8083 102.661 39.4615 104.558 37.4093 105.733C34.9327 107.081 36.3295 108.533 34.6746 109.59C31.6094 113.572 32.263 120.29 32.6609 125.298C35.8288 148.414 51.9596 167.795 71.0344 179.943C83.1252 187.817 97.0297 191.903 110.656 196.139C122.67 198.258 136.3 199.841 146.872 192.318C148.808 191.379 150.695 190.044 152.059 188.358V188.358ZM195.311 134.581C192.398 135.125 189.863 134.966 187.128 135.263C183.548 134.671 179.814 135.743 176.406 135.866C176.032 132.406 171.805 137.95 171.025 135.172C171.604 132.571 174.906 133.177 176.552 131.406C180.052 129.999 184.296 128.267 188.469 128.515C190.542 128.932 191.519 128.275 194.318 128.419C194.565 129.728 197.161 132.474 197.575 130.589C193.899 132.632 198.032 132.932 195.311 134.581ZM188.421 130.524C191.951 128.342 187.205 130.094 185.946 130.285C184.291 130.423 176.994 133.266 180.973 134.088C183.388 133.185 186.434 132.264 188.421 130.524ZM168.914 135.989C166.988 135.645 165.276 138.293 163.306 136.998C163.461 136.769 166.578 135.961 168.026 134.845C169.807 134.451 172.092 134.849 168.914 135.989V135.989ZM160.497 138.52C158.148 138.57 157.654 141.122 154.12 141.216C153.361 139.868 150.092 143.401 147.449 142.192C151.156 141.392 147.87 139.227 149.561 138.168C152.377 138.142 154.149 138.407 157.21 137.656C158.349 137.273 164.989 136.531 160.497 138.52ZM144.834 143.05C139.947 144.107 134.093 143.372 128.772 144.224C126.793 143.155 119.003 144.808 119.483 141.972C123.327 140.805 118.516 139.421 116.693 140.033C113.574 141.387 120.335 142.647 116.545 143.496C114.468 144.649 112.247 142.796 110.245 142.13C107.706 142.83 104.691 141.288 103.014 140.163C101.554 141.105 95.4417 135.071 97.9196 139.91C100.291 139.939 101.355 141.686 102.471 143.751C104.807 143.65 104.675 146.223 107.265 146.069C107.483 148.239 110.803 147.231 109.651 149.032C111.234 148.281 112.876 150.39 110.683 151.062C111.615 146.759 108.52 152.943 107.484 150.372C106.823 151.745 105.293 145.593 103.474 149.136C106.104 151.708 102.354 150.468 101.659 149.125C99.0895 148.258 96.3393 148.097 94.3535 146.573C93.5696 145.912 91.7451 144.939 90.3496 144.151C88.4853 143.596 84.7659 143.853 85.7011 141.136C85.3235 139.028 83.9706 139.387 81.5442 138.225C79.5643 137.218 80.9605 134.171 79.0343 132.734C77.3805 129.887 79.4739 130.531 78.1907 129.314C76.0154 131.598 76.688 125.876 75.403 125.422C72.8833 125.255 71.5882 121.685 70.1224 119.541C69.7956 118.233 67.4914 114.276 66.5422 116.311C66.4447 117.37 61.1879 114.335 61.0436 117.046C58.6506 114.833 58.0911 116.186 57.6971 114.039C58.2908 111.115 60.3316 111.409 60.5156 108.639C60.5172 104.621 59.3242 107.65 59.0464 109.955C57.0459 108.726 60.0497 105.351 59.7351 105.302C60.8794 105.04 61.9928 106.143 63.4807 105.888C65.3461 105.974 70.6265 109.688 70.3203 104.728C69.9829 101.044 73.4233 104.761 75.1369 106.629C84.799 117.444 95.2663 128.16 109.014 133.542C114.622 135.769 120.378 138.018 126.552 138.285C129.022 139.192 124.055 141.504 127.694 141.051C131.236 139.59 135.127 140.633 138.755 139.272C140.746 139.493 150.239 137.153 146.708 140.93C145.398 141.397 145.501 142.609 144.834 143.05V143.05ZM43.6251 116.812C43.7961 115.619 40.6968 114.388 40.9933 117.581C38.3235 118.888 38.0344 115.393 39.4696 113.669C39.0129 112.479 37.0616 109.401 39.4881 108.917C41.2683 109.125 39.9844 106.246 42.3127 105.991C43.9773 105.501 48.3997 107.245 46.2834 110.28C44.4273 110.603 42.9273 113.034 45.1547 114.052C45.332 115.405 44.7567 116.363 43.6251 116.812V116.812Z" fill="#D9B052"/>
<path d="M148.165 190.949C149.467 188.521 151.607 188.177 153.359 186.025C155.645 183.089 157.193 181.347 157.813 178.337C156.644 172.523 156.509 170.126 163.686 170.002C166.977 169.506 169.936 167.502 173.417 167.161C172.862 164.95 167.365 168.71 165.258 168.711C162.507 167.789 160.441 170.917 157.761 170.07C155.628 170.778 153.171 170.554 151.35 172.301C148.688 171.403 148.882 173.024 145.929 172.038C143.565 172.427 141.847 173.329 139.498 172.124C137.426 171.27 134.715 169.766 137.581 172.149C139.44 173.742 134.523 173.038 133.27 173.577C127.719 172.969 120.911 172.558 116.082 171.561C112.649 170.714 109.606 170.2 106.012 169.261C90.2504 164.539 75.7769 155.289 64.9258 142.874C57.0161 133.195 50.9186 119.92 55.8285 107.428C58.5711 103.963 54.7359 94.6226 58.0445 94.7279C59.4846 95.3567 62.2669 98.727 60.7991 96.4386C62.9078 96.9073 65.5679 100.913 62.7192 101.645C62.2075 100.462 61.9768 104.723 63.781 104.476C65.2399 106.48 70.0542 109.621 70.4584 105.215C70.2784 99.6277 76.6309 108.521 78.8539 110.452C87.4272 120.164 97.3158 129.045 109.621 133.583C129.993 141.935 153.112 139.46 173.275 131.629C179.908 129.738 190.425 125.521 195.81 128.977C196.695 131.088 199.183 126.301 201.977 128.272C204.76 130.291 206.159 126.135 208.783 124.953C212.542 122.666 214.008 118.152 217.477 115.803C219.7 114.719 220.937 112.806 220.554 110.781C219.433 107.761 226.374 108.787 224.503 104.873C223.609 102.369 225.117 100.5 227.787 99.9901C229.915 96.973 227.731 93.611 226.686 90.7095C225.194 88.3538 223.708 89.598 224.208 88.2245C220.339 88.7159 222.006 90.5061 221.436 94.0837C220.714 97.2623 217.383 95.6833 216.391 98.3147C214.945 100.415 214.541 102.981 212.822 104.321C209.879 105.754 207.871 106.393 204.755 107.421C194.115 110.802 183.733 114.926 173.359 119.076C165.305 120.744 157.778 124.528 149.371 124.67C145.266 124.326 140.355 126.56 136.812 125.238C133.176 125.528 130.055 126.189 126.659 125.026C122.498 126.011 117.899 124.24 113.722 123.597C107.616 121.986 101.38 119.819 96.3607 116.273C89.0308 113.394 81.7506 107.158 78.5084 99.8281C77.7643 97.6854 76.3894 96.279 77.1527 94.1223C74.5309 90.7659 77.6337 94.8097 78.9508 94.2557C79.1526 90.8386 82.513 92.6114 84.7231 94.0976C96.1711 101.683 108.381 108.665 122.153 110.705C136.404 113.459 151.278 112.555 165.402 109.347C166.73 107.657 157.754 109.697 155.65 109.449C149.824 108.925 142.91 109.913 137.018 108.605C131.931 106.865 126.591 107.777 121.172 106.079C117.259 104.176 112.961 104.213 109.05 102.364C100.462 98.7623 91.9723 94.3269 84.6657 88.5583C81.7984 85.7146 87.259 84.9884 86.6118 81.6575C85.5641 79.2206 81.3537 76.8373 81.3621 79.8694C78.9519 82.2846 80.5932 80.3372 78.6838 78.1486C78.2173 76.411 75.8495 75.3549 74.7714 73.8529C73.1979 70.7387 72.2504 68.3497 72.0729 68.901C71.2091 68.2626 69.6257 65.7034 71.251 65.7051C70.5899 62.7107 72.726 58.4291 68.888 56.5274C65.9401 54.222 63.4186 53.6478 60.7825 51.7315C57.7014 49.2356 52.5519 49.9391 50.253 53.283C47.2533 56.4357 46.0184 61.3061 46.4438 65.5666C47.6973 69.6166 44.5612 74.0431 45.9923 77.3458C48.2889 79.7867 47.4614 82.3232 49.8588 83.8931C53.2308 83.7279 51.2741 89.7937 51.4693 92.1901C51.0063 93.5867 52.3443 101.29 49.0592 98.517C48.7538 99.4198 44.5306 99.1233 45.6095 101.433C46.8897 102.454 49.2283 102.867 49.7833 104.483C52.3415 106.772 51.3633 110.879 51.2744 114.032C50.324 116.639 51.8565 118.763 50.7202 122.187C50.5884 124.82 51.2585 127.811 51.5269 130.414C52.2275 133.889 53.8923 137.115 55.2841 140.496C55.9636 142.791 57.2487 144.949 58.2399 146.943C59.529 148.646 61.1664 149.751 60.6459 152.111C62.0794 153.294 63.53 154.972 65.3408 156.288C68.8559 157.46 69.7647 161.26 72.0837 163.294C73.9341 163.548 75.8202 163.79 75.7921 166.449C76.121 169.123 81.9112 167.807 81.8964 170.351C77.1802 170.219 84.4684 176.483 83.2405 172.225C83.3736 169.01 86.5185 173.706 88.3399 173.398C90.2143 173.807 91.9984 175.629 93.2538 176.363C92.9525 175.728 98.8579 177.274 96.7995 179.52C95.3631 180.045 94.0104 176.877 93.0656 180.109C93.111 177.287 86.7414 181.341 91.531 181.393C93.358 182.462 96.0108 182.578 97.6256 183.786C98.762 187.49 101.668 180.798 98.4979 181.502C96.5796 179.695 98.8963 177.977 100.352 180.754C102.236 181.757 103.448 181.818 105.395 180.729C107.107 182.197 108.461 182.907 111.21 183.071C110.737 180.84 111.936 179.933 112.543 182.515C113.139 185.099 108.127 184.567 107.674 186.138C108.094 188.495 103.887 191.121 105.827 188.158C106.099 186.454 103.684 185.109 107.012 185.332C107.179 187.405 108.123 183.092 109.184 183.707C107.637 184.302 106.072 183.155 104.545 184.487C102.234 186.057 105.378 188.586 104.043 190.196C100.76 188.122 105.011 193.475 106.648 191.213C108.495 191.827 104.882 188.544 108.324 190.383C108.19 192.478 110.933 192.771 113.777 193.339C115.669 192.895 117.359 193.492 119.368 193.06C119.24 191.857 118.54 191.367 119.961 188.846C116.531 187.32 122.39 183.76 117.733 186.38C116.868 185.247 112.775 183.67 114.592 182.152C116.187 181.562 117.784 182.675 120.036 181.483C120.138 182.79 122.379 182.631 121.178 183.784C119.294 185.767 124.765 186.378 123.569 188.115C125.829 188.497 123.853 186.57 125.146 185.722C129.019 186.974 125.642 187.046 128.109 188.935C129.375 190.381 123.237 189.51 126.081 192.472C129.359 192.834 130.214 193.652 127.453 195.196C128.833 196.075 131.549 192.845 130.839 194.806C133.252 196.257 133.645 195.102 131.25 196.767C135.158 197.444 138.844 195.421 142.496 194.122C144.351 192.895 146.301 191.761 148.165 190.949L148.165 190.949ZM131.561 189.158C129.88 190.304 125.789 185.31 129.514 184.725C132.826 183.774 131.272 188.034 132.387 189.084C132.111 189.089 131.871 189.825 131.561 189.158ZM58.9393 94.7704C57.0157 94.207 55.5437 93.1945 56.282 90.3674C57.3996 91.8493 58.669 93.0579 59.3086 94.854L58.9393 94.7704ZM197.177 154.407C197.853 153.044 198.201 151.928 200.149 150.665C202.847 148.996 205.891 146.709 207.432 143.641C204.833 142.203 205.796 141.478 208.376 141.758C213.542 139.431 205.629 141.521 207.638 138.461C207.276 137.28 207.378 134.671 209.106 134.248C211.705 131.889 203.445 131.651 205.711 131.127C208.557 129.082 210.845 135.771 208.675 129.472C206.407 127.227 204.674 131.68 202.249 131.029C204.098 127.455 197.655 129.994 200.879 131.061C199.297 132.028 198.685 132.054 197.172 133.568C193.84 136.964 187.726 135.217 183.369 135.707C180.411 136.503 176.943 136.285 173.921 137.913C170.712 137.3 168.4 138.841 165.1 139.655C162.534 140.886 159.323 140.9 156.19 141.92C153.514 143.495 149.892 142.705 146.928 144.223C145.188 146.248 145.279 143.948 142.664 144.181C138.616 144.232 137.973 146.999 142.354 146.088C145.04 145.914 144.621 146.081 146.216 146.892C145.956 144.454 149.743 148.511 149.971 145.403C152.681 147.078 150.582 145.501 153.032 144.863C156.018 146.329 156.691 142.667 158.616 145.304C161.138 143.35 159.894 145.476 161.472 145.053C161.324 142.453 164.721 146.257 165.842 143.548C167.388 143.596 169.066 139.009 170.139 141.862C167.818 143.674 168.004 142.651 170.04 143.771C170.624 142.171 174.475 142.396 175.472 140.768C174.602 143.764 179.329 139.693 180.492 141.825C180.224 143.082 179.369 144.441 177.629 146.861C174.822 145.521 176.894 148.23 174.179 148.124C173.58 143.971 171.677 146.979 171.431 148.971C168.414 150.108 171.496 151.853 172.619 151.805C170.799 153.206 169.484 152.039 167.717 150.769C169.236 149.21 166.076 145.709 164.161 148.32C162.302 150.757 158.131 148.588 154.488 150.654C152.264 151.089 151.176 152.07 148.893 152.248C145.916 151.599 145.514 154.6 148.245 154.963C146.294 157.343 152.835 161.581 148.324 160.867C146.14 158.874 142.497 159 142.057 161.377C137.119 163.441 143.118 166.731 145.754 165.451C149.613 168.342 143.763 167.202 142.637 168.64C137.065 169.454 143.207 170.481 145.65 169.451C148.472 167.989 150.49 170.047 153.116 168.628C155.497 170.069 155.705 170.982 156.196 168.516C156.81 166.769 159.476 167.063 160.887 168.059C164.064 166.861 163.947 166.273 166.788 165.456C170.112 164.799 172.27 162.395 175.409 160.983C178.988 160.777 181.772 157.25 185.511 157.35C187.541 155.357 190.321 154.591 192.608 152.846C194.677 151.242 197.015 153.361 195.161 155.47C189.695 159.616 196.252 155.981 197.177 154.407V154.407ZM190.159 145.288C189.259 143.798 184.906 147.964 186.351 143.316C186.654 143.932 192.412 143.791 190.159 145.288ZM185.388 144.316C183.142 145.505 183.164 142.318 184.435 141.664C185.39 141.029 186.223 144.47 185.388 144.316ZM123.707 192.282C127.006 190.183 120.342 189.423 121.614 191.86C122.21 192.016 122.959 193.082 123.707 192.282ZM137.034 169.169C134.892 167.784 134.445 164.298 134.369 168.375C133.346 169.898 136.824 170.227 137.034 169.169ZM118.211 169.216C118.064 167.921 116.332 166.155 113.529 166.135C109.903 164.246 110.761 163.966 107.56 164.825C104.969 165.8 105.964 162.377 103.892 161.963C103.459 159.378 101.936 165.463 99.6542 160.85C98.4987 161.829 94.0782 158.885 96.8944 158.897C96.7419 155.245 90.0939 157.746 92.4146 154.352C91.2659 153.08 85.8663 150.144 88.3994 151.267C86.701 150.229 83.7778 149.902 82.6877 151.502C80.4873 152.303 79.0992 150.113 77.8647 149.377C77.2331 151.596 78.4518 151.019 79.2384 153.248C82.4176 154.583 86.3789 157.289 89.2612 159.502C91.771 160.836 94.1793 162.062 96.8431 163.025C100.276 164.712 104.293 165.526 107.432 167.238C109.473 166.458 112.195 169.134 114.596 169.11C115.988 168.588 117.232 170.331 118.211 169.216V169.216ZM112.795 162.119C111.226 161.167 109.116 160.011 107.271 160.074C105.101 157.778 103.979 159.556 103.149 156.913C102.127 158.483 97.9395 154.85 100.261 158.031C96.0613 158.329 100.033 160.655 100.764 158.631C102.701 157.589 101.168 160.486 102.739 159.039C105.524 160.255 108.181 161.291 110.911 162.483C111.609 162.352 112.387 162.602 112.795 162.119ZM199.253 96.0863C198.085 94.1612 195.339 97.5777 193.362 97.4127C190.748 98.7876 187.438 98.0405 189.769 100.43C192.265 100.387 193.894 97.4508 195.293 98.1931C196.457 97.0548 198.543 97.7542 199.253 96.0863ZM187.336 101.608C189.371 100.145 188.274 96.0565 185.866 99.8808C186.49 100.895 184.252 103.338 187.336 101.608ZM63.0784 158.948C62.4993 157.974 58.5961 153.758 59.7231 157.52C61.7809 157.962 60.7712 161.589 63.0784 158.948ZM58.958 157.605C59.4452 155.499 53.6564 154.625 56.4417 152.356C55.5359 149.177 53.3095 147.861 50.8078 145.683C47.6713 146.272 55.6071 150.232 51.1552 150.243C52.0411 153.609 55.2725 154.652 56.935 157.455C57.5862 157.691 58.5232 158.703 58.958 157.605V157.605Z" fill="#D4A326"/>
<path d="M210.092 140.797C210.609 140.463 205.699 140.427 207.634 138.465C207.258 137.287 207.384 134.675 209.102 134.253C212.707 131.256 205.213 131.804 205.277 131.416C208.19 128.018 210.852 136.402 208.814 129.629C206.403 127.087 204.097 132.258 201.618 131.787C200.135 131.694 200.652 135.973 202.888 136.556C204.302 138.289 205.396 140.469 207.108 141.944C207.993 141.507 209.612 141.995 210.092 140.797V140.797ZM156.817 179.359C158.26 178.255 158.823 173.187 156.235 172.326C144.703 174.414 132.781 174.749 121.271 172.769C103.262 170.698 85.9315 162.758 72.395 150.612C62.4478 142.007 54.0898 129.871 53.8925 116.239C54.2466 109.788 57.4004 103.662 56.2451 97.1074C56.6637 94.252 54.0352 83.8579 54.5789 85.108C55.1924 86.897 56.7277 91.8159 58.4471 88.3773C58.4183 86.1447 60.6674 84.7976 60.1388 83.11C59.9942 80.6032 64.815 80.3443 61.1696 79.1849C59.7028 77.0091 63.4561 73.9 64.7924 75.4301C67.4346 77.6892 65.0884 69.1361 68.7793 68.9662C70.0393 70.2816 70.1818 64.911 71.1168 63.298C73.0036 58.4973 68.1163 55.545 64.5305 53.9558C62.55 53.2451 60.6837 51.0525 58.1196 50.5913C53.0483 48.8821 48.5632 53.8799 47.4102 58.2744C45.2296 63.5604 47.2674 69.1412 45.9382 74.6375C44.0915 76.3837 47.1103 78.9971 48.3726 80.3129C52.9807 81.7577 52.725 85.9187 52.377 89.6995C51.4166 93.9101 51.7411 97.3553 52.5125 100.201C52.9474 104.536 52.043 109.698 52.8381 113.862C53.4044 118.014 51.4586 123.184 53.5036 125.845C53.0884 128.744 55.3074 130.919 56.1736 133.913C58.6933 138.54 60.213 144.065 64.6353 147.345C67.4806 151.146 69.3352 153.373 72.9334 156.195C77.6907 161.002 83.5805 164.732 89.389 167.937C90.7161 170.03 95.3513 168.606 94.8851 171.698C99.982 169.698 108.287 175.915 114.804 175.643C117.714 176.207 120.767 175.315 123.602 176.819C126.093 176.792 128.138 178.198 131.308 178.094C136.012 179.226 139.887 176.269 144.028 175.948C146.358 177.769 149.967 173.498 151.153 177.617C152.39 178.892 155.296 181.442 156.817 179.359V179.359ZM66.773 66.9262C63.414 65.3845 65.0619 64.7483 66.0702 63.3863C66.2993 61.1691 68.8164 68.3304 66.773 66.9262ZM200.668 126.925C201.24 125.877 196.775 125.486 197.564 123.155C198.339 120.091 193.038 122.228 193.445 119.095C196.727 118.291 190.33 114.338 195.027 114.489C196.174 112.836 192.091 112.604 190.303 114.548C188.547 114.967 186.36 114.481 185.605 116.105C182.501 118.01 186.525 118.394 187.731 117.007C190.433 116.512 189.595 119.795 190.44 117.597C193.543 117.783 189.17 119.615 188.508 120.835C188.129 121.9 182.951 124.822 184.459 122.821C182.713 123.388 180.319 125.627 179.144 125.605C178.029 126.014 176.196 126.146 174.598 126.946C172.138 126.978 170.937 128.739 169.376 129.005C168.692 130.085 165.853 131.055 162.623 130.813C161.538 132.752 159.222 132.687 157.486 133.317C155.62 134.149 152.327 133.998 150.623 134.936C148.486 135.352 146.597 135.164 144.553 135.555C140.543 136.439 137.069 136.144 133.238 136.017C128.158 135.996 121.278 135.428 116.01 134.101C114.594 131.514 115.018 134.919 110.949 132.762C105.232 132.12 120.126 136.83 122.183 136.767C140.211 140.859 158.913 136.958 175.858 130.345C183.861 127.429 192.393 127.533 200.668 126.925V126.925ZM224.063 107.265C225.495 105.592 223.914 103.624 224.021 101.871C221.257 98.7343 222.289 98.9531 225.187 100.507C228.916 101.525 229.258 96.2242 228.09 93.8561C226.694 91.9776 226.665 88.4447 223.881 89.1984C226.004 86.2189 218.744 91.1241 221.727 94.5707C221.19 98.6944 215.533 95.4404 215.005 100.987C212.332 103.278 216.458 105.403 216.898 107.101C218.846 107.776 222.47 109.657 224.063 107.265V107.265ZM154.46 110.904C152.167 110.143 137.613 111.658 146.928 111.747C149.44 111.574 152.022 111.611 154.46 110.904V110.904ZM73.2496 97.7347C69.382 93.8223 72.0177 102.828 73.2496 97.7347V97.7347ZM79.8554 90.5482C78.9546 86.798 83.1545 85.661 77.5793 84.0009C74.4622 80.9644 72.6673 76.5735 70.3118 73.2064C71.6573 79.2165 74.1193 85.4504 78.3369 90.0284C78.0029 89.2579 79.9349 91.4272 79.8554 90.5482ZM69.3276 93.4284C68.847 90.5878 68.8171 88.431 67.9042 85.826C67.0244 83.3967 65.8465 73.512 65.7661 81.3394C66.2073 85.6875 67.7712 89.8858 68.9264 93.729C69.0984 93.671 69.4777 93.8423 69.3276 93.4284V93.4284Z" fill="#A36D14"/>
<path d="M156.41 179.2C157.357 177.941 158.768 175.109 156.771 172.536C153.462 173.159 147.006 172.698 151.333 176.857C152.129 178.312 155.473 181.101 156.41 179.2V179.2ZM206.763 140.542C206.88 138.987 207.976 138.308 206.715 136.736C209.25 136.018 207.65 131.67 206.418 135.099C205.378 133.823 207.069 132.378 207.818 132.192C206.32 131.756 202.453 131.428 201.607 133.236C201.71 135.442 203.184 136.176 204.445 137.787C206.848 137.748 206.064 141.115 206.763 140.542V140.542ZM224.072 106.902C224.446 105.027 224.291 101.968 221.943 101.069C222.903 98.0601 218.081 96.1912 219.42 97.2436C217.656 98.4259 216.196 98.2696 215.5 101.024C212.816 102.92 216.134 105.274 217.631 106.509C220.579 108.797 218.576 105.026 221.306 107.929C222.379 108.446 223.389 107.694 224.072 106.902ZM226.703 100.024C225.138 99.2702 230.109 99.253 228.371 95.998C228.424 93.8286 226.689 92.2202 226.216 90.0901C223.653 89.2015 224.482 88.8547 223.758 88.2771C221.176 90.2428 223.354 94.2063 221.788 96.6235C222.114 100.306 224.748 95.9349 224.852 98.1538C221.639 98.9325 226.877 101.141 226.703 100.024V100.024ZM57.5865 87.3764C59.0991 85.0444 56.2268 81.2555 59.4545 80.3685C60.3779 78.3561 57.8238 74.515 61.5774 73.6878C64.5712 72.0119 66.8273 70.7184 61.4703 71.3009C60.0967 69.7884 57.4933 68.2258 57.5487 65.5807C56.9643 63.0676 58.1187 61.3506 59.3652 59.443C60.5972 57.2776 59.9876 54.634 59.3841 52.2889C58.8806 48.3614 54.1298 52.3786 54.4462 50.5031C51.5193 51.8073 52.2762 55.3839 50.2609 57.3336C47.5612 61.9393 49.7002 54.8698 48.53 55.7911C46.9265 58.1105 47.7438 61.1648 46.2161 63.3323C47.3123 67.6622 46.5266 68.748 46.1647 73.3694C44.8246 75.7322 45.9955 77.2752 47.47 79.3475C49.5469 78.9504 51.2276 82.8041 53.7688 82.6072C55.3568 84.1412 55.4042 88.7074 57.3974 88.9245C57.4601 88.409 57.5252 87.8895 57.5865 87.3764V87.3764Z" fill="#603D27"/>
</svg>
