<svg width="32" height="31" viewBox="0 0 32 31" fill="none" xmlns="http://www.w3.org/2000/svg">
<path d="M5.8116 26.0248C11.6695 31.8827 21.1669 31.8827 27.0248 26.0248C32.8827 20.1669 32.3281 11.5291 27.0248 4.8116C21.1669 -1.04626 10.0542 0.568963 5.8116 4.8116C1.56896 9.05424 -0.0462606 20.1669 5.8116 26.0248Z" fill="#060606" fill-opacity="0.3"/>
<path d="M30 15C30 23.2843 22 30 15 30C8 30 1.63918e-07 22.5 0 15C-1.63918e-07 7.5 5 2.18557e-07 15 0C23.2843 -1.81058e-07 30 7 30 15Z" fill="#86694D"/>
<path d="M21.5179 28.2238C26.1845 25.6942 30 20.7212 30 15C30 7 23.2843 -1.81058e-07 15 0C10.081 1.07508e-07 6.37186 1.81472 3.87251 4.55151C5.86875 3.56948 8.24465 3 11.0002 3C19.2845 3 26.0002 10 26.0002 18C26.0002 21.9508 24.1807 25.5448 21.5179 28.2238Z" fill="#060606" fill-opacity="0.08"/>
<path d="M6.81496 10.0484C6.13411 11.3053 6.24958 12.8244 6.07991 14.1818C5.87608 15.8125 7.37928 20.8582 5.18058 19.9324C0.328143 17.8893 2.0167 9.06459 5.37786 6.26885C8.26845 3.86453 11.4283 2.23998 15.3185 2.71772C16.8462 2.90584 10.0766 5.78124 9.34785 6.50997C8.28788 7.56994 7.52337 8.74054 6.81496 10.0484Z" fill="white" fill-opacity="0.2"/>
<path d="M3.18007 11.3755C3.59126 9.64895 4.75593 8.09872 6.1224 6.97554C8.1002 5.34989 7.67803 6.07133 6.30429 7.44507C5.24363 8.50573 4.72994 11.3309 4.6265 12.1687C4.52306 13.0066 5.37479 15.1508 4.37445 15.6911C3.23613 16.3059 2.76888 13.1021 3.18007 11.3755Z" fill="white" fill-opacity="0.3"/>
</svg>
