<svg width="60" height="60" viewBox="0 0 60 60" fill="currentColor" xmlns="http://www.w3.org/2000/svg">
<path d="M59.8832 25.9788C60.807 36.6712 56.5027 60 37.9099 60C9.41711 58.542 0 35.0654 0 23.7918C0 12.5182 5.31222 1.43502 15.4537 0.219978C27.044 -1.16866 57.9515 3.62209 59.8832 25.9788Z" fill="currentColor"/>
<path d="M10.4784 11.1554C12.6617 11.1554 14.9708 13.9417 14.9708 16.0777C14.9708 18.2136 13.7399 19.4177 11.5566 19.4177C9.37323 19.4177 7.2439 18.2136 7.2439 16.0777C7.2439 13.9417 8.29506 11.1554 10.4784 11.1554Z" fill="white" fill-opacity="0.8"/>
<path d="M19.034 4.62676C20.4454 5.14089 21.273 7.53399 20.7631 8.9517C20.2532 10.3694 19.1701 10.8788 17.7587 10.3647C16.3472 9.85054 15.2581 8.54988 15.768 7.13217C16.2779 5.71446 17.6226 4.11262 19.034 4.62676Z" fill="white" fill-opacity="0.8"/>
</svg>
