<svg width="32" height="31" viewBox="0 0 32 31" fill="none" xmlns="http://www.w3.org/2000/svg">
<path d="M30.4996 20C28.3555 28.002 20.7373 31.741 12.1284 30.6066C3.51958 29.4723 -0.419298 19.4799 1.52184 12.2355C3.46299 4.99102 10.7665 0.785356 19.893 1.62886C29.0196 2.47236 33.8643 7.443 30.4996 20Z" fill="#060606" fill-opacity="0.3"/>
<path d="M29.4801 19.0276C27.336 27.0296 19.7178 30.7685 11.1089 29.6342C2.50005 28.4999 -1.43883 18.5075 0.502314 11.2631C2.44346 4.01861 9.74694 -0.187056 18.8735 0.656448C28 1.49995 32.8447 6.47059 29.4801 19.0276Z" fill="#86694D"/>
<path d="M23.8395 27.0709C26.5268 25.2525 28.5352 22.554 29.4801 19.0276C32.8447 6.47059 28 1.49995 18.8735 0.656448C11.6754 -0.00882251 5.61091 2.46681 2.41727 7.09686C5.74988 4.81884 10.2362 3.74329 15.2792 4.20938C24.4058 5.05288 29.2505 10.0235 25.8858 22.5806C25.4334 24.269 24.7372 25.7677 23.8395 27.0709Z" fill="#060606" fill-opacity="0.08"/>
<path d="M7.19527 9.85706C6.2123 10.895 5.93067 12.3922 5.41545 13.6594C4.79653 15.1817 4.94257 20.4446 3.05839 18.9813C-1.0999 15.7519 2.81513 7.66491 6.78536 5.83437C10.1997 4.26012 13.6724 3.50875 17.3064 4.97706C18.7334 5.55418 11.4502 6.57949 10.5577 7.09478C9.25947 7.84429 8.21804 8.77713 7.19527 9.85706Z" fill="white" fill-opacity="0.2"/>
<path d="M3.34074 10.1981C4.18478 8.63683 5.71099 7.44086 7.3216 6.70963C9.65276 5.65126 9.05825 6.23885 7.37577 7.21023C6.07673 7.96023 4.84934 10.5561 4.53257 11.3387C4.2158 12.1212 4.48355 14.4128 3.37745 14.6758C2.11879 14.9751 2.49669 11.7594 3.34074 10.1981Z" fill="white" fill-opacity="0.3"/>
</svg>
