<svg width="31" height="31" viewBox="0 0 31 31" fill="none" xmlns="http://www.w3.org/2000/svg">
<path d="M26.6049 26.6049C20.747 32.4627 11.2495 32.4627 5.39168 26.6049C-0.466182 20.747 1.14904 9.63432 5.39168 5.39168C9.63432 1.14904 20.747 -0.466182 26.6049 5.39168C31.9082 12.1092 32.4627 20.747 26.6049 26.6049Z" fill="#060606" fill-opacity="0.3"/>
<path d="M25.6068 25.6066C19.749 31.4645 10.2515 31.4645 4.39364 25.6066C-1.46423 19.7487 0.150995 8.63603 4.39364 4.39339C8.63628 0.15075 19.749 -1.46447 25.6068 4.39339C30.9101 11.1109 31.4647 19.7487 25.6068 25.6066Z" fill="#86694D"/>
<path d="M18.3415 29.6251C21.0041 29.0195 23.5334 27.68 25.6068 25.6066C31.4647 19.7487 30.9101 11.1109 25.6068 4.39339C20.3021 -0.911375 10.688 -0.0876358 5.76895 3.26598C10.7113 2.04523 16.8147 2.67228 20.6571 6.5147C25.9604 13.2322 26.5149 21.87 20.6571 27.7279C19.9359 28.4491 19.1595 29.0815 18.3415 29.6251Z" fill="#060606" fill-opacity="0.08"/>
<path d="M8.79042 21.8719C8.25865 22.3594 7.70799 22.2552 7.10516 21.9032C5.38826 20.9005 3.62683 18.2091 3.27139 16.3529C2.67262 13.226 4.1122 9.88486 6.16152 7.5753C8.11463 5.37418 11.3736 4.37454 14.1276 4.03029C15.6417 3.84103 17.44 4.11666 18.615 4.58447C19.79 5.05227 20.4357 6.56953 17.011 6.18848C13.5862 5.80743 11.9793 6.17858 9.78625 8.37161C9.07927 9.07859 7.22984 12.1792 7.58339 14.654C7.93695 17.1289 9.92711 20.83 8.79042 21.8719Z" fill="white" fill-opacity="0.2"/>
<path d="M5.61948 10.569C4.74751 12.3129 5.20083 16.1627 5.58625 16.1509C6.44131 16.1248 6.77709 13.779 6.5698 13.0534C6.15169 11.5901 7.30484 9.38718 8.25939 8.25908C9.02409 7.35534 10.4039 6.16131 9.7957 6.39247C7.96677 7.08742 6.32652 9.15489 5.61948 10.569Z" fill="white" fill-opacity="0.3"/>
</svg>
