<svg width="30" height="31" viewBox="0 0 30 31" fill="none" xmlns="http://www.w3.org/2000/svg">
<path d="M30 16.4999C30 22 25.7842 31 17.4999 31C10.4999 31 0.176482 23.5 1 16.4999C1.82352 9.49987 6.49992 0.499908 15 0.999934C23.5001 1.49996 30 6.99996 30 16.4999Z" fill="#060606" fill-opacity="0.3"/>
<path d="M29.0464 15.52C29.0464 21.02 24.8306 30.02 16.5463 30.02C9.54628 30.02 -0.777131 22.52 0.0463872 15.52C0.869906 8.51989 5.5463 -0.480072 14.0464 0.0199537C22.5465 0.51998 29.0464 6.01998 29.0464 15.52Z" fill="#86694D"/>
<path d="M23.5873 27.3834C27.2126 24.2972 29.0464 19.1474 29.0464 15.52C29.0464 6.01998 22.5465 0.51998 14.0464 0.0199537C9.20407 -0.2649 5.60264 2.53331 3.24756 6.28848C5.3412 4.46418 7.95681 3.35549 11.0929 3.53997C19.593 4.04 26.0929 9.54 26.0929 19.04C26.0929 21.4944 25.2533 24.6459 23.5873 27.3834Z" fill="#060606" fill-opacity="0.08"/>
<path d="M17.2468 6.05427C16.0949 6.31754 14.215 6.24506 13.0464 6.52002C11.2195 6.94988 10.1783 8.1026 9.02062 9.44446C7.61664 11.0718 7.83879 13.0328 7.83879 15.176C7.83879 16.5717 8.56619 19.0333 6.54457 19.4009C4.61356 19.752 3.96071 17.1983 3.4148 15.9973C2.48836 13.9592 4.05357 12.0317 4.61569 10.1111C5.98912 5.41857 13.8757 1.45589 17.9748 4.73516C18.8022 5.39714 17.8605 5.91398 17.2468 6.05427Z" fill="white" fill-opacity="0.2"/>
<path d="M6.96913 11.9154C6.87932 12.6938 6.89322 13.4831 6.89322 14.2653C6.89322 15.1077 6.95947 16.6062 6.45462 17.3406C5.92667 18.1085 5.28799 16.3658 5.23665 16.1091C4.8869 14.3603 4.98856 12.6452 5.80009 11.0129C6.42166 9.76269 8.04638 7.01981 8.54638 7.51992C9.04638 8.02002 8.48858 8.34582 8.15167 8.93796C7.9714 9.2548 7.77766 9.56054 7.6186 9.88939C7.30775 10.5321 7.05134 11.2029 6.96913 11.9154Z" fill="white" fill-opacity="0.3"/>
</svg>
