<svg width="31" height="31" viewBox="0 0 31 31" fill="none" xmlns="http://www.w3.org/2000/svg">
<path d="M7.00003 26.5C14 32.3933 19.5003 30.3933 24.5003 26.5C30.3581 20.6421 31.8937 11.9998 27.5002 5.89335C23.1068 -0.213131 9.63607 1.04413 5.39343 5.28677C1.15079 9.52941 3.57628e-05 20.6066 7.00003 26.5Z" fill="#060606" fill-opacity="0.3"/>
<path d="M23.5003 25.6067C18.5003 29.5 13 31.5 6.00003 25.6067C-0.999966 19.7133 0.15079 8.6361 4.39343 4.39346C8.63607 0.150821 22.1068 -1.10644 26.5002 5.00004C30.8937 11.1065 29.3581 19.7488 23.5003 25.6067Z" fill="#86694D"/>
<path d="M19.764 28.0176C21.0482 27.382 22.289 26.5498 23.5003 25.6067C29.3581 19.7488 30.8937 11.1065 26.5002 5.00004C22.1068 -1.10644 8.63607 0.150821 4.39343 4.39346C4.07385 4.71304 3.77163 5.07148 3.4893 5.46348C9.26083 3.22479 18.4597 3.43459 21.9452 8.27917C26.1263 14.0905 24.9377 22.1985 19.764 28.0176Z" fill="#060606" fill-opacity="0.08"/>
<path d="M8.45296 21.1439C7.9212 21.6314 7.37053 21.5272 6.7677 21.1752C5.05081 20.1725 3.28937 17.481 2.93394 15.6249C2.33517 12.498 3.77474 9.15682 5.82406 6.84727C7.77718 4.64614 11.0361 3.64651 13.7901 3.30226C15.3042 3.11299 17.1025 3.38863 18.2775 3.85643C19.4525 4.32424 20.0983 5.84149 16.6735 5.46044C13.2487 5.0794 11.6418 5.45055 9.4488 7.64357C8.74181 8.35055 6.89238 11.4511 7.24594 13.926C7.59949 16.4009 9.58966 20.1019 8.45296 21.1439Z" fill="white" fill-opacity="0.2"/>
<path d="M5.28216 9.84078C4.4102 11.5847 4.86351 15.4345 5.24894 15.4227C6.104 15.3966 6.43978 13.0508 6.23249 12.3252C5.81438 10.8619 6.96753 8.65898 7.92208 7.53088C8.68678 6.62714 10.0666 5.43311 9.45839 5.66427C7.62946 6.35922 5.98921 8.42669 5.28216 9.84078Z" fill="white" fill-opacity="0.3"/>
</svg>
