<svg width="11" height="12" viewBox="0 0 11 12" xmlns="http://www.w3.org/2000/svg">
    <path d="M5.62477 0.608887C2.82057 0.608887 0.547852 2.76377 0.547852 5.42138C0.547852 6.92744 1.27964 7.58349 2.42195 8.4665C2.61233 8.61474 2.72339 8.85537 2.68968 9.10888L2.50326 11.2179C2.47549 11.4241 2.62225 11.6089 2.81462 11.6089H4.35554V10.4058C4.35554 10.3112 4.42694 10.2339 4.5142 10.2339H4.83151C4.91877 10.2339 4.99016 10.3112 4.99016 10.4058V11.6089H6.25939V10.4058C6.25939 10.3112 6.33079 10.2339 6.41804 10.2339H6.73535C6.82262 10.2339 6.89401 10.3112 6.89401 10.4058V11.6089H8.43493C8.62728 11.6089 8.77409 11.4241 8.74625 11.2179L8.55985 9.10888C8.52617 8.85752 8.63524 8.61474 8.82757 8.4665C9.96988 7.58349 10.7017 6.92744 10.7017 5.42138C10.7017 2.76377 8.42898 0.608887 5.62477 0.608887ZM3.72093 6.99215C3.02087 6.99215 2.4517 6.86728 2.4517 6.10888C2.4517 5.35049 3.02087 4.73388 3.72093 4.73388C4.42099 4.73388 4.99016 5.35049 4.99016 6.10888C4.99016 6.86728 4.42099 6.99215 3.72093 6.99215ZM7.52862 6.99215C6.82856 6.99215 6.25939 6.86728 6.25939 6.10888C6.25939 5.35049 6.82856 4.73388 7.52862 4.73388C8.22868 4.73388 8.79787 5.35049 8.79787 6.10888C8.79787 6.86728 8.22868 6.99215 7.52862 6.99215Z" fill="white"/>
</svg>
