<svg width="110" height="16" viewBox="0 0 110 16" fill="currentColor" xmlns="http://www.w3.org/2000/svg">
<path d="M0 15.788L4.11067 0.173494H6.03379L10.1685 15.788H8.36557L7.40401 11.6048H2.76448L1.77889 15.788H0ZM3.02891 10.5446H7.16362L5.09627 2.12048L3.02891 10.5446Z" fill="currentColor"/>
<path d="M12.2734 15.788V0.173494H17.9947C19.1646 0.173494 20.1101 0.346988 20.8313 0.693976C21.5685 1.04096 22.1054 1.54859 22.4419 2.21687C22.7945 2.87229 22.9708 3.66908 22.9708 4.60723C22.9708 5.62249 22.7544 6.44498 22.3217 7.0747C21.889 7.69157 21.28 8.14137 20.4947 8.4241C19.7255 8.70683 18.812 8.84819 17.7543 8.84819H15.8312V15.788H12.2734ZM15.8312 6.84337H17.1774C17.8184 6.84337 18.3152 6.77269 18.6678 6.63133C19.0364 6.47711 19.2848 6.23936 19.413 5.91807C19.5572 5.58394 19.6293 5.14056 19.6293 4.58795C19.6293 4.02249 19.5732 3.56627 19.4611 3.21928C19.3649 2.85944 19.1405 2.59599 18.788 2.42892C18.4514 2.26185 17.9146 2.17831 17.1774 2.17831H15.8312V6.84337Z" fill="currentColor"/>
<path d="M23.9887 15.788V0.173494H28.6522C29.9664 0.173494 31.0722 0.302008 31.9696 0.559037C32.8831 0.803214 33.5722 1.22731 34.037 1.83133C34.5177 2.43534 34.7581 3.25783 34.7581 4.2988C34.7581 4.92851 34.686 5.49398 34.5418 5.99518C34.3976 6.49639 34.1491 6.92691 33.7966 7.28675C33.46 7.63373 32.9873 7.90361 32.3783 8.09639L35.0947 15.788H31.5369L29.1811 8.63614H27.5464V15.788H23.9887ZM27.5464 6.84337H28.6522C29.3413 6.84337 29.8862 6.76627 30.2869 6.61205C30.7036 6.44498 31 6.18795 31.1763 5.84096C31.3526 5.48112 31.4408 5.0249 31.4408 4.47229C31.4408 3.68835 31.2565 3.10361 30.8879 2.71807C30.5353 2.31968 29.8542 2.12048 28.8445 2.12048H27.5464V6.84337Z" fill="currentColor"/>
<path d="M35.5165 15.788L39.4108 0.173494H43.209L47.1033 15.788H43.8099L43.0407 12.1831H39.6512L38.8579 15.788H35.5165ZM40.0118 10.3711H42.6561L41.3339 3.81687L40.0118 10.3711Z" fill="currentColor"/>
<path d="M52.7686 16C51.4865 16 50.4689 15.7815 49.7156 15.3446C48.9624 14.9076 48.4175 14.2908 48.081 13.494C47.7605 12.6843 47.6002 11.7333 47.6002 10.641V5.39759C47.6002 4.27952 47.7605 3.31566 48.081 2.50603C48.4015 1.69639 48.9624 1.07952 49.7637 0.655422C50.581 0.218474 51.7029 0 53.1292 0C54.4593 0 55.5171 0.17992 56.3023 0.53976C57.0876 0.899599 57.6485 1.42008 57.9851 2.10121C58.3376 2.76948 58.5139 3.58554 58.5139 4.5494V5.35904H55.1244V4.47229C55.1244 3.97108 55.0763 3.54056 54.9802 3.18072C54.9001 2.82088 54.7238 2.551 54.4513 2.37108C54.1949 2.17831 53.7702 2.08193 53.1773 2.08193C52.5522 2.08193 52.0955 2.20402 51.807 2.44819C51.5346 2.69237 51.3583 3.01365 51.2782 3.41205C51.2141 3.81044 51.182 4.24739 51.182 4.72289V11.2578C51.182 11.7976 51.2381 12.2667 51.3503 12.6651C51.4625 13.0635 51.6708 13.3719 51.9753 13.5904C52.2798 13.796 52.7125 13.8988 53.2734 13.8988C53.8503 13.8988 54.2911 13.7831 54.5956 13.5518C54.9001 13.3205 55.1084 12.9992 55.2206 12.588C55.3488 12.1767 55.4129 11.6884 55.4129 11.1229V9.65783H53.3215V7.86506H58.6101V15.788H56.3264L56.0619 14.2458C55.8055 14.7598 55.4129 15.1839 54.884 15.5181C54.3712 15.8394 53.6661 16 52.7686 16Z" fill="currentColor"/>
<path d="M59.3696 15.788L63.2639 0.173494H67.062L70.9564 15.788H67.663L66.8938 12.1831H63.5043L62.711 15.788H59.3696ZM63.8648 10.3711H66.5091L65.187 3.81687L63.8648 10.3711Z" fill="currentColor"/>
<path d="M72.1934 15.788V0.173494H76.5925C77.8105 0.173494 78.7641 0.334137 79.4532 0.655422C80.1583 0.963856 80.6632 1.42008 80.9676 2.0241C81.2721 2.61526 81.4244 3.32209 81.4244 4.14458C81.4244 4.72289 81.3443 5.26908 81.184 5.78313C81.0237 6.29719 80.7513 6.73414 80.3667 7.09398C79.982 7.45382 79.4372 7.69157 78.732 7.80723L81.7129 15.788H79.934L77.0733 8.11566H74.0204V15.788H72.1934ZM74.0204 7.03614H76.4964C77.3137 7.03614 77.9468 6.92691 78.3955 6.70843C78.8442 6.48996 79.1647 6.16867 79.357 5.74458C79.5493 5.32048 79.6455 4.78715 79.6455 4.14458C79.6455 3.18072 79.4372 2.46105 79.0205 1.98554C78.6038 1.51004 77.7785 1.27229 76.5445 1.27229H74.0204V7.03614Z" fill="currentColor"/>
<path d="M83.509 15.788V0.173494H90.5525V1.31084H85.36V7.17108H89.5909V8.2506H85.36V14.6892H90.6005V15.788H83.509Z" fill="currentColor"/>
<path d="M91.0918 15.788L95.2025 0.173494H97.1256L101.26 15.788H99.4574L98.4958 11.6048H93.8563L92.8707 15.788H91.0918ZM94.1207 10.5446H98.2554L96.1881 2.12048L94.1207 10.5446Z" fill="currentColor"/>
<path d="M102.644 15.788V0.173494H104.471V14.6892H110V15.788H102.644Z" fill="currentColor"/>
</svg>
